<svg width="100" height="100" viewBox="0 0 100 100" fill="none" xmlns="http://www.w3.org/2000/svg">
<path d="M50 0L93.3013 25V75L50 100L6.69873 75V25L50 0Z" fill="#00384A"/>
<path d="M41.0969 21.0668C46.6167 17.9255 53.3833 17.9255 58.9031 21.0667L71.2139 28.0729C76.8377 31.2734 80.3109 37.2462 80.3109 43.7169V57.2831C80.3109 63.7538 76.8377 69.7266 71.2139 72.9271L58.9031 79.9333C53.3833 83.0745 46.6167 83.0745 41.0969 79.9333L28.7861 72.9271C23.1623 69.7266 19.6891 63.7538 19.6891 57.2831L19.6891 43.7169C19.6891 37.2462 23.1623 31.2734 28.7861 28.0729L41.0969 21.0668Z" fill="#262049"/>
</svg>
